<svg width="121" height="29" viewBox="0 0 121 29" fill="none" xmlns="http://www.w3.org/2000/svg">
<g clip-path="url(#clip0_183_769)">
<path d="M42.8543 0V22.8043H40.5981L40.2851 20.139C39.1888 21.9986 36.9627 23.1137 34.4854 23.1137C30.316 23.1137 26.9316 20.2317 26.9316 15.0269C26.9316 9.82222 30.3796 6.81613 34.4854 6.81613C37.0246 6.81613 39.1871 7.90147 40.2851 9.69813V0H42.8561H42.8543ZM40.2215 15.0269C40.2215 11.3707 37.8698 9.04797 34.8921 9.07768C31.7571 9.10914 29.5946 11.4022 29.5946 15.0269C29.5946 18.6517 31.7889 20.8818 34.8921 20.8818C37.9953 20.8818 40.2215 18.7129 40.2215 15.0269Z" fill="#EBFF24"/>
<path d="M59.907 15.6774H47.1812C47.2431 19.1466 49.5329 20.945 52.385 20.945C54.5175 20.945 56.3034 19.9226 57.0867 17.8778H59.7195C58.8107 21.0062 56.0841 23.0825 52.3214 23.0825C47.6515 23.0825 44.5483 19.83 44.5483 14.9346C44.5483 10.0392 47.6515 6.81641 52.2913 6.81641C56.9311 6.81641 59.9087 9.91512 59.9087 14.5623V15.6774H59.907ZM47.2113 13.7881H57.2741C57.0867 10.5356 54.9542 8.8927 52.2895 8.8927C49.6249 8.8927 47.5242 10.5041 47.2113 13.7881Z" fill="#EBFF24"/>
<path d="M75.4547 13.4158V22.8028H72.8837V13.9419C72.8837 10.6894 71.1597 9.13913 68.5887 9.13913C65.6111 9.13913 64.0126 11.2451 64.0126 14.3141V22.8028H61.4417V7.12575H63.6979L63.9808 9.54286C64.8896 7.80737 66.7392 6.81641 69.1846 6.81641C73.1348 6.81641 75.4547 9.41877 75.4547 13.4158Z" fill="#EBFF24"/>
<path d="M79.0602 18.1873C79.1221 20.0469 80.7524 21.1305 83.1978 21.1305C85.6432 21.1305 87.148 20.1692 87.148 18.5281C87.148 17.1334 86.3965 16.3906 84.5469 16.1425L81.2563 15.6164C78.2468 15.1201 76.8676 13.6957 76.8676 11.3415C76.8676 8.58356 79.5323 6.81836 83.0121 6.81836C86.743 6.81836 89.4378 8.58356 89.4696 11.7137H86.9305C86.8686 9.82445 85.2684 8.80203 83.044 8.80203C80.8196 8.80203 79.4085 9.73182 79.4085 11.2803C79.4085 12.6121 80.2856 13.264 82.2606 13.5419L85.4894 14.0679C88.3733 14.5328 89.7525 15.896 89.7525 18.3131C89.7525 21.4119 86.9004 23.1159 83.2632 23.1159C79.0938 23.1159 76.5228 21.1951 76.4609 18.1891H79.062L79.0602 18.1873Z" fill="#EBFF24"/>
<path d="M91.4412 0.774414H94.6381V3.74904H91.4412V0.774414ZM91.7541 7.12565H94.3251V22.8027H91.7541V7.12565Z" fill="#EBFF24"/>
<path d="M98.054 18.8688V9.41882H95.2019V7.12581H96.7066C97.7092 7.12581 98.054 6.69237 98.054 5.73112V3.03613H100.625V7.12581H104.356V9.41882H100.625V18.528C100.625 19.6745 101.002 20.5116 102.536 20.5116H104.322V22.8046H101.941C99.5888 22.8046 98.054 21.5341 98.054 18.8705V18.8688Z" fill="#EBFF24"/>
<path d="M113.476 21.1002L118.272 7.0957L120.998 7.12716L114.353 25.3454C113.225 28.3812 111.501 29.0017 109.182 29.0017H106.046V26.7087H109.213C110.844 26.7087 111.846 25.8418 111.846 24.0749C111.846 23.6414 111.752 23.208 111.563 22.7116L105.482 7.12716H108.273L113.476 21.1002Z" fill="#EBFF24"/>
<path d="M2.26684 4.54785H0.300595C0.134581 4.54785 0 4.68087 0 4.84496V6.78843C0 6.95253 0.134581 7.08555 0.300595 7.08555H2.26684C2.43285 7.08555 2.56743 6.95253 2.56743 6.78843V4.84496C2.56743 4.68087 2.43285 4.54785 2.26684 4.54785Z" fill="#EBFF24"/>
<path d="M5.8156 7.08534H3.9024C3.73619 7.08534 3.60181 6.95252 3.60181 6.78823V4.84301C3.60181 4.67873 3.73619 4.5459 3.9024 4.5459H5.8156C6.0101 4.5459 6.16924 4.70319 6.16924 4.89544V6.73405C6.16924 6.9263 6.0101 7.0836 5.8156 7.0836V7.08534Z" fill="#EBFF24"/>
<path d="M9.46874 4.54785H7.5025C7.33649 4.54785 7.2019 4.68087 7.2019 4.84496V6.78843C7.2019 6.95253 7.33649 7.08555 7.5025 7.08555H9.46874C9.63476 7.08555 9.76934 6.95253 9.76934 6.78843V4.84496C9.76934 4.68087 9.63476 4.54785 9.46874 4.54785Z" fill="#EBFF24"/>
<path d="M13.0723 4.54785H11.106C10.94 4.54785 10.8054 4.68087 10.8054 4.84496V6.78843C10.8054 6.95253 10.94 7.08555 11.106 7.08555H13.0723C13.2383 7.08555 13.3729 6.95253 13.3729 6.78843V4.84496C13.3729 4.68087 13.2383 4.54785 13.0723 4.54785Z" fill="#EBFF24"/>
<path d="M16.6831 8.08496H14.7169C14.5508 8.08496 14.4163 8.21798 14.4163 8.38207V10.3255C14.4163 10.4896 14.5508 10.6227 14.7169 10.6227H16.6831C16.8491 10.6227 16.9837 10.4896 16.9837 10.3255V8.38207C16.9837 8.21798 16.8491 8.08496 16.6831 8.08496Z" fill="#EBFF24"/>
<path d="M13.0723 8.08496H11.106C10.94 8.08496 10.8054 8.21798 10.8054 8.38207V10.3255C10.8054 10.4896 10.94 10.6227 11.106 10.6227H13.0723C13.2383 10.6227 13.3729 10.4896 13.3729 10.3255V8.38207C13.3729 8.21798 13.2383 8.08496 13.0723 8.08496Z" fill="#EBFF24"/>
<path d="M9.46874 8.08496H7.5025C7.33649 8.08496 7.2019 8.21798 7.2019 8.38207V10.3255C7.2019 10.4896 7.33649 10.6227 7.5025 10.6227H9.46874C9.63476 10.6227 9.76934 10.4896 9.76934 10.3255V8.38207C9.76934 8.21798 9.63476 8.08496 9.46874 8.08496Z" fill="#EBFF24"/>
<path d="M3.95545 8.08496H5.86864C6.03486 8.08496 6.16924 8.21779 6.16924 8.38207V10.3273C6.16924 10.4916 6.03486 10.6244 5.86864 10.6244H3.95545C3.76095 10.6244 3.60181 10.4671 3.60181 10.2749V8.43625C3.60181 8.244 3.76095 8.08671 3.95545 8.08671V8.08496Z" fill="#EBFF24"/>
<path d="M2.26684 8.08496H0.300595C0.134581 8.08496 0 8.21798 0 8.38207V10.3255C0 10.4896 0.134581 10.6227 0.300595 10.6227H2.26684C2.43285 10.6227 2.56743 10.4896 2.56743 10.3255V8.38207C2.56743 8.21798 2.43285 8.08496 2.26684 8.08496Z" fill="#EBFF24"/>
<path d="M2.21379 11.6211H0.353641C0.15833 11.6211 0 11.7776 0 11.9706V13.8092C0 14.0023 0.15833 14.1588 0.353641 14.1588H2.21379C2.4091 14.1588 2.56743 14.0023 2.56743 13.8092V11.9706C2.56743 11.7776 2.4091 11.6211 2.21379 11.6211Z" fill="#EBFF24"/>
<path d="M5.87035 14.1588H3.95716C3.76265 14.1588 3.60352 14.0015 3.60352 13.8092V11.9706C3.60352 11.7784 3.76265 11.6211 3.95716 11.6211H5.87035C6.03657 11.6211 6.17095 11.7539 6.17095 11.9182V13.8634C6.17095 14.0277 6.03657 14.1605 5.87035 14.1605V14.1588Z" fill="#EBFF24"/>
<path d="M9.46874 11.6211H7.5025C7.33649 11.6211 7.2019 11.7541 7.2019 11.9182V13.8617C7.2019 14.0258 7.33649 14.1588 7.5025 14.1588H9.46874C9.63476 14.1588 9.76934 14.0258 9.76934 13.8617V11.9182C9.76934 11.7541 9.63476 11.6211 9.46874 11.6211Z" fill="#EBFF24"/>
<path d="M13.0723 11.6211H11.106C10.94 11.6211 10.8054 11.7541 10.8054 11.9182V13.8617C10.8054 14.0258 10.94 14.1588 11.106 14.1588H13.0723C13.2383 14.1588 13.3729 14.0258 13.3729 13.8617V11.9182C13.3729 11.7541 13.2383 11.6211 13.0723 11.6211Z" fill="#EBFF24"/>
<path d="M16.6831 11.6211H14.7169C14.5508 11.6211 14.4163 11.7541 14.4163 11.9182V13.8617C14.4163 14.0258 14.5508 14.1588 14.7169 14.1588H16.6831C16.8491 14.1588 16.9837 14.0258 16.9837 13.8617V11.9182C16.9837 11.7541 16.8491 11.6211 16.6831 11.6211Z" fill="#EBFF24"/>
<path d="M20.2849 11.6211H18.3187C18.1526 11.6211 18.0181 11.7541 18.0181 11.9182V13.8617C18.0181 14.0258 18.1526 14.1588 18.3187 14.1588H20.2849C20.4509 14.1588 20.5855 14.0258 20.5855 13.8617V11.9182C20.5855 11.7541 20.4509 11.6211 20.2849 11.6211Z" fill="#EBFF24"/>
<path d="M20.2849 15.1582H18.3187C18.1526 15.1582 18.0181 15.2912 18.0181 15.4553V17.3988C18.0181 17.5629 18.1526 17.6959 18.3187 17.6959H20.2849C20.4509 17.6959 20.5855 17.5629 20.5855 17.3988V15.4553C20.5855 15.2912 20.4509 15.1582 20.2849 15.1582Z" fill="#EBFF24"/>
<path d="M16.6831 15.1582H14.7169C14.5508 15.1582 14.4163 15.2912 14.4163 15.4553V17.3988C14.4163 17.5629 14.5508 17.6959 14.7169 17.6959H16.6831C16.8491 17.6959 16.9837 17.5629 16.9837 17.3988V15.4553C16.9837 15.2912 16.8491 15.1582 16.6831 15.1582Z" fill="#EBFF24"/>
<path d="M13.0723 15.1582H11.106C10.94 15.1582 10.8054 15.2912 10.8054 15.4553V17.3988C10.8054 17.5629 10.94 17.6959 11.106 17.6959H13.0723C13.2383 17.6959 13.3729 17.5629 13.3729 17.3988V15.4553C13.3729 15.2912 13.2383 15.1582 13.0723 15.1582Z" fill="#EBFF24"/>
<path d="M9.46874 15.1582H7.5025C7.33649 15.1582 7.2019 15.2912 7.2019 15.4553V17.3988C7.2019 17.5629 7.33649 17.6959 7.5025 17.6959H9.46874C9.63476 17.6959 9.76934 17.5629 9.76934 17.3988V15.4553C9.76934 15.2912 9.63476 15.1582 9.46874 15.1582Z" fill="#EBFF24"/>
<path d="M3.95545 15.1582H5.86864C6.03486 15.1582 6.16924 15.291 6.16924 15.4553V17.4005C6.16924 17.5648 6.03486 17.6976 5.86864 17.6976H3.95545C3.76095 17.6976 3.60181 17.5404 3.60181 17.3481V15.5095C3.60181 15.3172 3.76095 15.1599 3.95545 15.1599V15.1582Z" fill="#EBFF24"/>
<path d="M2.26684 15.1582H0.300595C0.134581 15.1582 0 15.2912 0 15.4553V17.3988C0 17.5629 0.134581 17.6959 0.300595 17.6959H2.26684C2.43285 17.6959 2.56743 17.5629 2.56743 17.3988V15.4553C2.56743 15.2912 2.43285 15.1582 2.26684 15.1582Z" fill="#EBFF24"/>
<path d="M2.26684 18.6934H0.300595C0.134581 18.6934 0 18.8264 0 18.9905V20.9339C0 21.098 0.134581 21.2311 0.300595 21.2311H2.26684C2.43285 21.2311 2.56743 21.098 2.56743 20.9339V18.9905C2.56743 18.8264 2.43285 18.6934 2.26684 18.6934Z" fill="#EBFF24"/>
<path d="M5.87035 21.2311H3.95716C3.76265 21.2311 3.60352 21.0738 3.60352 20.8815V19.0429C3.60352 18.8507 3.76265 18.6934 3.95716 18.6934H5.87035C6.03657 18.6934 6.17095 18.8262 6.17095 18.9905V20.9357C6.17095 21.1 6.03657 21.2328 5.87035 21.2328V21.2311Z" fill="#EBFF24"/>
<path d="M9.46874 18.6934H7.5025C7.33649 18.6934 7.2019 18.8264 7.2019 18.9905V20.9339C7.2019 21.098 7.33649 21.2311 7.5025 21.2311H9.46874C9.63476 21.2311 9.76934 21.098 9.76934 20.9339V18.9905C9.76934 18.8264 9.63476 18.6934 9.46874 18.6934Z" fill="#EBFF24"/>
<path d="M13.0723 18.6934H11.106C10.94 18.6934 10.8054 18.8264 10.8054 18.9905V20.9339C10.8054 21.098 10.94 21.2311 11.106 21.2311H13.0723C13.2383 21.2311 13.3729 21.098 13.3729 20.9339V18.9905C13.3729 18.8264 13.2383 18.6934 13.0723 18.6934Z" fill="#EBFF24"/>
<path d="M16.6831 18.6934H14.7169C14.5508 18.6934 14.4163 18.8264 14.4163 18.9905V20.9339C14.4163 21.098 14.5508 21.2311 14.7169 21.2311H16.6831C16.8491 21.2311 16.9837 21.098 16.9837 20.9339V18.9905C16.9837 18.8264 16.8491 18.6934 16.6831 18.6934Z" fill="#EBFF24"/>
<path d="M13.0723 22.2314H11.106C10.94 22.2314 10.8054 22.3645 10.8054 22.5286V24.472C10.8054 24.6361 10.94 24.7691 11.106 24.7691H13.0723C13.2383 24.7691 13.3729 24.6361 13.3729 24.472V22.5286C13.3729 22.3645 13.2383 22.2314 13.0723 22.2314Z" fill="#EBFF24"/>
<path d="M9.46874 22.2314H7.5025C7.33649 22.2314 7.2019 22.3645 7.2019 22.5286V24.472C7.2019 24.6361 7.33649 24.7691 7.5025 24.7691H9.46874C9.63476 24.7691 9.76934 24.6361 9.76934 24.472V22.5286C9.76934 22.3645 9.63476 22.2314 9.46874 22.2314Z" fill="#EBFF24"/>
<path d="M3.95545 22.2314H5.86864C6.03486 22.2314 6.16924 22.3643 6.16924 22.5286V24.4738C6.16924 24.6381 6.03486 24.7709 5.86864 24.7709H3.95545C3.76095 24.7709 3.60181 24.6136 3.60181 24.4213V22.5827C3.60181 22.3905 3.76095 22.2332 3.95545 22.2332V22.2314Z" fill="#EBFF24"/>
<path d="M2.26684 22.2314H0.300595C0.134581 22.2314 0 22.3645 0 22.5286V24.472C0 24.6361 0.134581 24.7691 0.300595 24.7691H2.26684C2.43285 24.7691 2.56743 24.6361 2.56743 24.472V22.5286C2.56743 22.3645 2.43285 22.2314 2.26684 22.2314Z" fill="#EBFF24"/>
</g>
<defs>
<clipPath id="clip0_183_769">
<rect width="121" height="29" fill="white"/>
</clipPath>
</defs>
</svg>
